<svg xmlns="http://www.w3.org/2000/svg" xml:space="preserve" width="79.2" height="128.6"><g paint-order="markers fill stroke"><path fill="#f6a61d" d="M61.8 4.5q-3.5 9.7-7.2 18.5l7.9-3c-.7-9.6-.7-15.5-.7-15.5m1 20.1-10.6 4-1.9 4 12.8-4.7zm.7 7.8-16 5.8-2 4.1 18.4-6.7zm.9 7.7-22 8-2.4 4.2 24.8-9zm1 7.6-29 10.6-2.6 4.3 32-11.8zm1.1 7.6L29.8 68.7c-14.9 22-27.4 33.7-27.4 33.7 31.8-16 71.3 25.2 71.3 25.2 5.3-13.2-2-41-6.9-70.6q0-1-.3-1.7" style="-inkscape-stroke:hairline" transform="translate(.2)" vector-effect="non-scaling-stroke"/><path fill="#00b1b9" d="M66.3 0 62 10.8c.3 8.7 1.4 25.9 4.8 46.2 4.3 25.7 10.4 50 8.4 64.7l2.4 2.3c.8-2.9 4.4-20.1-3.8-56.6C65.5 30.8 66.3 0 66.3 0" style="-inkscape-stroke:hairline" transform="translate(.2)" vector-effect="non-scaling-stroke"/><path fill="#4eb073" d="m-.2 110.2 18.6 17.2s-5.5-13.7 48.8 1.2c0 0-43.3-40.4-67.4-18.4" style="-inkscape-stroke:hairline" transform="translate(.2)" vector-effect="non-scaling-stroke"/></g></svg>