<svg xmlns="http://www.w3.org/2000/svg" viewBox="0 0 276.2 55"><path d="M50.6 54.6q-.7-.4-1.5-1.3c-.6-.8-.6-1.4-.7-6l-.1-5.1h2.6v5.2c0 5.7.1 6.2 1.8 6.5a2 2 0 0 0 1.7-.4c.8-.7.8-.8 1-6v-5.3h2.2V47c0 5.7-.3 6.8-2 7.5-1.4.6-4 .6-5 0m28.2 0c-1.7-.8-2-1.8-2-7.4v-5H79l.1 5.3c.1 6 .3 6.3 2.4 6.3 1.9 0 2-.4 2-6.4v-5.2h2.6v4.2c0 7-.7 8.3-4.3 8.5q-1.9.1-3-.4m78.8 0q-3-1.5-3.1-6.4 0-4.4 2.7-5.7c2.2-1 4.8-.6 6 .9q1.6 2-.6 2c-1 0-1.2-.2-1.6-1-.4-1-.7-1-1.6-1q-2.3-.2-2.5 3.7t1.4 5.7c1 1 3 1 4.4.1l.8-.5v1c0 .7-.1 1-1.2 1.2-1.6.5-3.5.5-4.7 0m10.4-.3c-2.1-1.4-2.4-2.2-2.4-5.9 0-3.2 0-3.3 1-4.5a5 5 0 0 1 7.5-.5c2 2 2.4 6.6.7 9.5-1.2 2-4.7 2.8-6.8 1.4m4.4-1.4a5 5 0 0 0 .9-2.2c.3-2.1 0-5.5-.6-6.4a2.5 2.5 0 0 0-4.3.2c-.8 1.5-.8 6.4 0 7.9q1.7 2.7 4 .5m40.5 1.5q-1-.7-1.4-1.5c-.2-.5-.3-3-.3-5.8v-4.9h2.2v5c0 5.7.2 6.3 2 6.7q.8.3 1.7-.6c.8-.8.8-.9.8-6v-5.1h2.3v5.2c0 5.7-.2 6.2-2 7.1-1.3.7-4 .6-5.3-.1m36.1 0c-.5-.4-1.2-1-1.3-1.5s-.3-3-.3-5.8v-4.9h2.2v5.1c0 5 0 5.2.8 6q.7.7 1.3.7c.6 0 1.8-.6 2.1-1 .2-.2.3-2.7.3-5.6v-5.2h2.2v10.5l-.9 1c-.8 1-1.1 1.1-3.1 1.2-1.8.1-2.4 0-3.3-.5m-211.6-6v-6.2h2.3v2.7l.1 2.8 2-2.8c2-2.5 2.2-2.7 3.2-2.7 1.3 0 1.3 0-1.2 3l-1.9 2.6c0 .1 1 1.7 2.3 3.4l2.2 3.3q-.1.2-1.3.2c-1.2 0-1.3-.1-3-2.8-1-1.5-2-2.8-2.2-2.9-.1 0-.2 1.2-.2 2.8v2.9h-2.3zm23 0v-6.2H62l1.5.2 1.8 5c1.5 4.2 1.9 5 2.1 4.5l1.9-5.1 1.5-4.6H74v12.5h-2.2v-5.2l-.2-5.2-1.8 5.1c-1.7 5-1.8 5.1-2.7 5.2l-1 .1-1.7-5a32 32 0 0 0-2-5c-.1 0-.2 2.3-.2 5v5h-1.6zm28.6 0v-6.2h2.5l2.3 4.4 2.5 4.7q.3.1.3-4.4v-4.7h1.6v12.5h-1.1c-1.2-.2-1.2-.2-3.6-4.9L91 45.1V50l-.1 4.8h-2zm12.4 0v-6.2h2.2v12.5h-2.2zm4.8 5.6c0-.6.3-.6 3.7-.6s3.7 0 3.7.6-.2.7-3.7.7c-3.4 0-3.7 0-3.7-.7m9.6 0c0-.4 1.3-2.9 2.8-5.5l2.7-4.9-2.6-.1c-2.3 0-2.5 0-2.5-.7s.2-.6 3.8-.6c3.4 0 3.8 0 4 .6q-.1.8-2.6 5.3l-2.7 5c0 .2 1.2.3 2.7.3 2.5 0 2.8 0 2.8.6s-.3.7-4.2.7c-4.1 0-4.2 0-4.2-.7m10.6-5.6v-6.2h2.2l.1 2.6.1 2.7h2.2l2.1.2v-5.5h2.6v12.5H133v-2.8l.1-2.8-2.3-.1-2.3-.1v5.8h-2.2zm52.2 0v-6.2h2.8l.8 2.3 3 7.8 1.8-5 1.7-5h1.5l1.5-.1v12.5h-2v-5.4l-.1-5.3-1.9 5.3-1.9 5.4h-1c-.8-.2-1-.3-2.6-5.1l-1.9-5.1-.1 5v5.2h-1.6zm16.3 0v-6.2h1.5l1.4.2.9 2.4 1.8 5c.5 1.5 1 2.6 1.1 2.4l2-5.1 1.6-4.9h2.8v12.5h-2V44l-1.9 5.3c-1.7 5.1-1.8 5.2-2.7 5.3l-1 .1-1.7-4.9c-1-2.7-1.8-5-2-5.2s-.2 2-.2 4.9v5.2h-1.6zm28.5 0v-6.2h2.4l2.4 4.6 2.4 4.5v-4.5l.1-4.6h2v12.5h-1.3c-1.1-.2-1.2-.2-3.4-4.6l-2.7-4.8c-.3-.3-.3.8-.3 4.5v4.9h-1.6zm13.3 0 2.2-6.2h1.2l1.3.2 2 5.8 2 6.2q-.1.3-1 .3c-1.1 0-1.2 0-1.7-1.8l-.6-1.8-2.2.1-2.2.1-.6 1.6c-.5 1.4-.6 1.6-1.5 1.7l-1 .1zm4.9 1.3c0-.4-1.3-4.8-1.5-5q-.3-.4-1.9 4.5c-.1.6 0 .7 1.6.7q1.7 0 1.8-.2m19.5-.6v-5.6h-1.6c-1.4 0-1.6-.1-1.6-.7s.2-.6 4.3-.6 4.4 0 4.4.6q.2.8-1.6.7h-1.6v11.2h-2.2zm7 5c0-.7.3-.7 3.7-.7s3.7 0 3.7.6-.2.7-3.7.7c-3.4 0-3.6 0-3.6-.7m-161.9-5.8c0-.6.3-.7 3.7-.7s3.7 0 3.7.7-.2.6-3.7.6c-3.4 0-3.7 0-3.7-.6m39.6 0c-1.1-.7-2.4-.9-3-.3-.5.5-1.4.1-1.4-.5s1.6-1.8 2.7-1.8q.9 0 1.8.6c1.1.9 1.6 1 2.8.4q2.5-.7.9 1.2t-3.8.4m122.4 0c0-.6.2-.7 3.6-.7 3.5 0 3.7 0 3.7.7s-.2.6-3.7.6c-3.4 0-3.6 0-3.6-.6m-162-5.5c0-.6.3-.6 3.7-.6s3.7 0 3.7.6-.2.7-3.7.7c-3.4 0-3.7 0-3.7-.7m162 0c0-.6.2-.6 3.6-.6 3.5 0 3.7 0 3.7.6s-.2.7-3.7.7c-3.4 0-3.6 0-3.6-.7m-226.6-10c-10.8-3-11.3-18.3-.8-22.3 2.5-.9 6.6-.8 8.9.3 2 .9 4.4 3.2 5.5 5.4.9 1.7 1 2.1 1 5.2 0 3-.1 3.5-1 5.2a12 12 0 0 1-13.6 6.1M48 29c5-2.5 6.1-9.7 2-13.7a7.4 7.4 0 0 0-11.9 2c-.8 1.6-1.1 4.8-.6 6.6.6 2 2.3 4.2 4 5 1.8 1 4.8 1 6.5.1m47.5 2.6c-3-3.3-3-8.3-.3-10.8 1.5-1.4 3-1.9 7.6-2l4.3-.2v-1.3q0-2.1-2.4-3.5c-.9-.5-1.7-.7-4-.7-2.6 0-3 .1-4.2 1l-1.5.8c-.1 0-.2-1-.2-2.2v-2.2l2.2-.4c1.3-.2 3.5-.3 5.1-.2q7 .4 8.6 5.2c.3 1 .4 3.4.4 9.3v8.1h-3.8v-1.4c0-1.4 0-1.5-.7-1.2l-5.3 1.7-4.6 1.5zm8-4 3.6-1.1.1-2.3.1-2.3h-3.5c-4.3 0-5.6.5-6.3 2.2-.9 2 .2 5.1 1.6 4.7.4 0 2.3-.6 4.4-1.2m76.3 5.2q-7.1-1.6-8.7-8.8-1.4-6.7 3.7-11.5c2.2-2 4.1-2.7 7.2-2.7 4.8 0 8.5 3.8 9.4 9.6l.4 2.5c0 .3-2 .4-8.5.4h-8.6l.3 1.1c.8 4.7 5.2 7.3 10.2 6.1l2.7-.7c.6-.2.7-.1.7 1.4 0 1.6 0 1.6-1.3 2.1-1.6.6-5.7 1-7.5.5m7.8-14.2c.1-.9-1.7-3.8-3-4.6-2.4-1.6-5.5-1.1-7.6 1.2-1.3 1.3-2.1 3.5-1.6 3.8.2.1 3 .2 6.2.2 5-.1 5.9-.2 6-.6m48.8 14.1q-5.2-1.4-7.5-6c-.7-1.5-.8-2-.8-5.2 0-4.2.5-5.7 3-8.3q3.1-3.3 7.4-3.4c2.5 0 3.8.4 5.7 1.7q3.7 2.7 4.4 8.8l.2 2h-17.1l.2 1.2c.1.6.6 1.7 1 2.4q3.1 5.8 12 3c.7-.3.7-.3.6 1.4s-.1 1.7-1.4 2.1c-1.9.6-5.8.8-7.7.3m8.2-13.6c.4 0-.3-2-1.2-3.3a6 6 0 0 0-4.2-2.7c-2.7-.3-5.5 1.5-6.7 4.3q-.4 1-.3 1.5c.1.3 6.5.4 12.4.2M1.5 32.7c-.1-.1-.2-7-.2-15.2 0-14.4 0-15-.7-16L0 .2C0 0 3 0 6.6 0c7 .2 8.5.5 11.7 2q3.5 1.8 5.2 5.4c3.6 7.3 1.6 16.8-5 23.7l-1.7 1.8H9.2c-4.1 0-7.6 0-7.7-.2m14.3-5.2c4.5-5 6-13.3 3.1-18.4q-2.6-5-9.8-5.2l-3-.1v25h8.5zM71 32.3a9 9 0 0 1-5-4.2l-1-1.7-.1-7c-.2-6-.3-7.3-.8-8.2l-.5-1h5.1v6.5c0 3.6.2 7.3.4 8.2.4 2 1.8 3.7 3.4 4.2l1.2.4L77 27l3.1-2.5V10.2h3.8v22.4H80v-2q0-1.7-.2-1.8l-2.7 2c-2.8 2.4-3.2 2.5-6 1.5m49.8-9.9c0-8.4 0-10.2-.4-10.7-1-1.3-.7-1.5 1.9-1.5h2.4v4.3l2.4-2.4 2.3-2.3 1.5.5c1.4.5 4.4 2.3 4.4 2.7l-1.2 1.4-1.2 1.2-1.4-1-1.8-.9c-.2 0-1.5 1-2.7 2.4l-2.3 2.4v7l.2 7.1h-4zm22.1 0a43 43 0 0 0-.4-11l-.5-1q.2-.2 2.4-.2h2.4v2c0 1.2 0 2.2.2 2.2q.5-.2 2.9-2.2l2.6-2.2 1.6.2q5.1.9 7.1 5.2c.7 1.6.8 2.2.9 9.4l.1 7.8h-4.2v-7.4c0-6.8 0-7.5-.7-8.8s-1.4-2-3-2.6c-1-.3-1.2-.3-4.1 2l-3.1 2.5v14.3h-4.1zm57.3.4c0-9.1 0-9.8-.6-11l-.7-1.4c0-.1 1.1-.2 2.4-.2h2.4v2c0 1.2.2 2.2.3 2.2L207 12c2.3-2 2.7-2.2 3.6-2q3.7.6 5.8 2.6c2.4 2.2 2.6 3 2.7 12.1l.1 7.8h-3.8l-.1-7.3c0-6.8-.1-7.4-.8-8.8s-1.5-2.1-3.2-2.7c-1-.3-1.1-.3-4 2.1l-3.1 2.5v14.2h-3.9zm54.4 8v-2l7.7-12 8-12.3c0-.3-1.4-.4-6.4-.4-5.7 0-6.6 0-7.3.6C255 6 255 6 255 3V.3h20.8V2c0 2 .6 1-13 22l-3 4.6 8.1.2 8.1.1v1.9l.2 1.8h-21.5z"/></svg>